<svg width="275" height="231" viewBox="0 0 275 231" fill="none" xmlns="http://www.w3.org/2000/svg">
<path opacity="0.2" d="M253.456 0H21.8606V231H253.456V0Z" fill="#FA9829"/>
<path opacity="0.5" d="M218.289 21.5674H56.7108V209.749H218.289V21.5674Z" fill="#FA9829"/>
<path d="M275 33.1806H188.508V199.083H275V33.1806Z" fill="url(#paint0_linear)"/>
<path d="M86.4919 33.8126H0V199.715H86.4919V33.8126Z" fill="url(#paint1_linear)"/>
<path d="M272.149 35.7086H191.359V195.607H272.149V35.7086Z" fill="#FA9829"/>
<path d="M2.85139 195.607H83.6405L83.6405 35.7086H2.85139L2.85139 195.607Z" fill="#FA9829"/>
<path d="M70.3341 50.2449H16.1578V60.041H70.3341V50.2449Z" fill="url(#paint2_linear)"/>
<path d="M259.159 65.0971H204.983V74.8933H259.159V65.0971Z" fill="url(#paint3_linear)"/>
<path d="M258.842 80.2654H204.666V90.0616H258.842V80.2654Z" fill="url(#paint4_linear)"/>
<path d="M258.842 95.4337H204.666V105.23H258.842V95.4337Z" fill="url(#paint5_linear)"/>
<path d="M258.842 110.602H204.666V120.398H258.842V110.602Z" fill="url(#paint6_linear)"/>
<path d="M258.842 125.77H204.666V135.566H258.842V125.77Z" fill="url(#paint7_linear)"/>
<path d="M258.842 140.938H204.666V150.735H258.842V140.938Z" fill="url(#paint8_linear)"/>
<path d="M258.842 156.107H204.666V165.903H258.842V156.107Z" fill="url(#paint9_linear)"/>
<path d="M258.842 171.275H204.666V181.071H258.842V171.275Z" fill="url(#paint10_linear)"/>
<path d="M258.842 50.2449H204.666V60.041H258.842V50.2449Z" fill="url(#paint11_linear)"/>
<path d="M70.3341 65.7291H16.1578V75.5253H70.3341V65.7291Z" fill="url(#paint12_linear)"/>
<path d="M70.3341 80.5814H16.1578V90.3776H70.3341V80.5814Z" fill="url(#paint13_linear)"/>
<path d="M70.3341 95.4337H16.1578V105.23H70.3341V95.4337Z" fill="url(#paint14_linear)"/>
<path d="M70.3341 110.602H16.1578V120.398H70.3341V110.602Z" fill="url(#paint15_linear)"/>
<path d="M70.3341 125.77H16.1578V135.566H70.3341V125.77Z" fill="url(#paint16_linear)"/>
<path d="M69.3836 51.5089H17.4251V59.093H69.3836V51.5089Z" fill="white"/>
<path d="M69.2252 66.3611H17.2667V73.9453H69.2252V66.3611Z" fill="white"/>
<path d="M69.2252 81.5294H17.2667V89.1135H69.2252V81.5294Z" fill="white"/>
<path d="M69.2252 96.6977H17.2667V104.282H69.2252V96.6977Z" fill="white"/>
<path d="M69.2252 111.866H17.2667V119.45H69.2252V111.866Z" fill="white"/>
<path d="M69.2252 127.034H17.2667V134.618H69.2252V127.034Z" fill="white"/>
<path d="M70.3341 140.938H16.1578V150.735H70.3341V140.938Z" fill="url(#paint17_linear)"/>
<path d="M69.2252 142.202H17.2667V149.787H69.2252V142.202Z" fill="white"/>
<path d="M69.2252 142.202H17.2667V149.787H69.2252V142.202Z" fill="white"/>
<path d="M69.2252 157.371H17.2667V164.955H69.2252V157.371Z" fill="white"/>
<path d="M69.2252 172.539H17.2667V180.123H69.2252V172.539Z" fill="white"/>
<path d="M257.892 51.1929H205.933V58.777H257.892V51.1929Z" fill="white"/>
<path d="M257.892 66.3611H205.933V73.9453H257.892V66.3611Z" fill="white"/>
<path d="M257.892 81.5294H205.933V89.1135H257.892V81.5294Z" fill="white"/>
<path d="M257.892 96.6977H205.933V104.282H257.892V96.6977Z" fill="white"/>
<path d="M257.892 111.866H205.933V119.45H257.892V111.866Z" fill="white"/>
<path d="M257.892 127.034H205.933V134.618H257.892V127.034Z" fill="white"/>
<path d="M257.892 142.202H205.933V149.787H257.892V142.202Z" fill="white"/>
<path d="M257.892 157.371H205.933V164.955H257.892V157.371Z" fill="white"/>
<path d="M257.892 172.539H205.933V180.123H257.892V172.539Z" fill="white"/>
<path d="M232.863 203.824H41.8203V215.832H232.863V203.824Z" fill="url(#paint18_linear)"/>
<path d="M231.596 205.088H43.4044V214.568H231.596V205.088Z" fill="#FA9829"/>
<path d="M233.18 15.8003H42.4539V28.1245H233.18V15.8003Z" fill="url(#paint19_linear)"/>
<path d="M231.596 16.7483H43.4044V26.2285H231.596V16.7483Z" fill="#FA9829"/>
<path opacity="0.5" d="M184.073 35.7086H91.5611V195.607H184.073V35.7086Z" fill="#263238"/>
<path d="M208.994 105.246C211.211 108.21 207.891 111.711 207.891 111.711L208.449 111.904C207.628 112.811 204.387 116.903 191.892 135.415C175.892 159.115 154.333 165.028 154.333 165.028C151.713 162.986 148.733 161.452 145.547 160.505V158.268C149.618 157.071 153.338 154.908 156.389 151.965C159.44 149.022 161.731 145.386 163.067 141.368C164.975 137.602 165.967 133.441 165.963 129.221C165.963 114.053 153.363 101.747 137.823 101.747C122.283 101.747 109.683 114.05 109.683 129.221C109.679 133.441 110.671 137.602 112.579 141.368C113.915 145.386 116.207 149.022 119.257 151.965C122.308 154.908 126.028 157.071 130.099 158.268V160.505C126.913 161.452 123.933 162.986 121.314 165.028V165.028C121.314 165.028 99.7445 159.109 83.7451 135.408C71.2497 116.897 68.0086 112.801 67.1881 111.898L67.7457 111.705C67.7457 111.705 64.4349 108.203 66.6432 105.239C68.8514 102.275 52.0219 98.7738 53.9513 105.239C55.8808 111.705 58.3646 114.938 58.3646 114.938C58.3646 114.938 93.595 170.359 111.986 179.516C111.552 181.394 111.333 183.315 111.334 185.242V196.018H164.3V185.242C164.301 183.315 164.082 181.394 163.647 179.516C182.023 170.352 217.269 114.941 217.269 114.941C217.269 114.941 219.753 111.708 221.682 105.242C223.612 98.777 206.785 102.281 208.994 105.246Z" fill="url(#paint20_linear)"/>
<path d="M137.817 157.538C152.7 157.538 164.766 145.504 164.766 130.659C164.766 115.814 152.7 103.779 137.817 103.779C122.933 103.779 110.868 115.814 110.868 130.659C110.868 145.504 122.933 157.538 137.817 157.538Z" fill="#263238"/>
<path d="M137.817 160.177C151.825 160.177 163.181 148.85 163.181 134.877C163.181 120.905 151.825 109.578 137.817 109.578C123.808 109.578 112.452 120.905 112.452 134.877C112.452 148.85 123.808 160.177 137.817 160.177Z" fill="#F8C198"/>
<path d="M127.777 132.504C129.528 132.504 130.948 131.088 130.948 129.341C130.948 127.594 129.528 126.178 127.777 126.178C126.025 126.178 124.605 127.594 124.605 129.341C124.605 131.088 126.025 132.504 127.777 132.504Z" fill="#263238"/>
<path d="M148.386 132.504C150.137 132.504 151.557 131.088 151.557 129.341C151.557 127.594 150.137 126.178 148.386 126.178C146.634 126.178 145.215 127.594 145.215 129.341C145.215 131.088 146.634 132.504 148.386 132.504Z" fill="#263238"/>
<path d="M145.215 146.469C145.215 148.365 141.904 151.477 137.817 151.477C133.73 151.477 130.419 148.365 130.419 146.469C130.419 144.573 133.73 144.623 137.817 144.623C141.904 144.623 145.215 144.573 145.215 146.469Z" fill="white"/>
<path d="M128.569 130.396C129.153 130.396 129.627 129.924 129.627 129.341C129.627 128.758 129.153 128.286 128.569 128.286C127.984 128.286 127.511 128.758 127.511 129.341C127.511 129.924 127.984 130.396 128.569 130.396Z" fill="white"/>
<path d="M149.441 130.396C150.025 130.396 150.499 129.924 150.499 129.341C150.499 128.758 150.025 128.286 149.441 128.286C148.857 128.286 148.383 128.758 148.383 129.341C148.383 129.924 148.857 130.396 149.441 130.396Z" fill="white"/>
<path d="M140.351 120.834C138.805 120.834 137.418 119.494 137.253 117.962C137.199 117.191 137.383 116.423 137.779 115.759C138.176 115.096 138.766 114.569 139.471 114.249C139.615 114.174 139.774 114.133 139.936 114.129C140.469 114.129 140.732 114.761 140.903 115.263C141.435 116.818 142.379 118.335 143.862 119.055C145.344 119.776 147.416 119.406 148.199 117.959C146.102 117.026 145.205 114.1 146.425 112.16C146.897 111.411 147.632 110.776 147.781 109.904C148.053 108.324 146.317 107.173 144.781 106.699C140.345 105.331 124.884 105.179 124.032 111.781C123.139 118.745 135.482 121.757 140.351 120.834Z" fill="#263238"/>
<path d="M115.154 139.316C115.967 138.995 115.889 136.87 114.978 134.567C114.068 132.265 112.67 130.659 111.856 130.979C111.042 131.299 111.121 133.425 112.031 135.727C112.942 138.029 114.34 139.636 115.154 139.316Z" fill="#F8C198"/>
<path d="M163.595 135.711C164.506 133.408 164.584 131.283 163.77 130.962C162.956 130.642 161.558 132.249 160.648 134.551C159.737 136.853 159.659 138.979 160.473 139.299C161.287 139.619 162.684 138.013 163.595 135.711Z" fill="#F8C198"/>
<path d="M153.629 165.694C153.629 165.694 174.276 159.911 189.601 136.72C204.926 113.528 205.718 113.465 205.718 113.465L213.908 116.691C213.908 116.691 175.864 177.832 159.484 180.995C143.105 184.159 153.629 165.694 153.629 165.694Z" fill="#FF9800"/>
<path d="M204.929 113.531C204.929 113.531 208.097 110.106 205.987 107.211C203.877 104.317 219.991 100.891 218.14 107.211C216.29 113.531 213.914 116.691 213.914 116.691L204.929 113.531Z" fill="#F8C198"/>
<path d="M122.004 165.694C122.004 165.694 101.357 159.911 86.0325 136.72C70.708 113.528 69.9159 113.465 69.9159 113.465L61.7261 116.691C61.7261 116.691 99.773 177.832 116.156 180.995C132.539 184.159 122.004 165.694 122.004 165.694Z" fill="#FF9800"/>
<path d="M70.7048 113.531C70.7048 113.531 67.5366 110.106 69.6466 107.211C71.7566 104.317 55.6431 100.891 57.4934 107.211C59.3436 113.531 61.7198 116.691 61.7198 116.691L70.7048 113.531Z" fill="#F8C198"/>
<g opacity="0.2">
<path opacity="0.2" d="M146.463 108.317C146.311 109.189 145.576 109.821 145.107 110.573C144.039 112.274 144.594 114.732 146.159 115.946C145.934 115.377 145.841 114.764 145.888 114.155C145.934 113.545 146.119 112.953 146.428 112.425C146.9 111.676 147.635 111.041 147.784 110.169C147.955 109.18 147.337 108.358 146.476 107.767C146.498 107.95 146.494 108.135 146.463 108.317V108.317Z" fill="white"/>
<path opacity="0.2" d="M139.863 114.397C139.762 114.16 139.667 113.92 139.585 113.68C139.414 113.177 139.151 112.561 138.618 112.545C138.456 112.55 138.297 112.591 138.153 112.665C137.448 112.985 136.858 113.512 136.462 114.176C136.065 114.84 135.881 115.608 135.935 116.378C135.994 116.843 136.15 117.29 136.394 117.691C136.638 118.091 136.964 118.435 137.351 118.701C137.306 118.545 137.275 118.385 137.256 118.224C137.203 117.453 137.386 116.685 137.783 116.021C138.179 115.358 138.769 114.831 139.474 114.511C139.596 114.452 139.728 114.413 139.863 114.397V114.397Z" fill="white"/>
<path opacity="0.2" d="M137.63 119.403C133.777 119.564 127.561 118.098 124.498 114.979C126.785 119.832 136.236 121.864 140.339 121.084C139.779 121.065 139.234 120.9 138.759 120.605C138.283 120.31 137.894 119.895 137.63 119.403V119.403Z" fill="white"/>
<path opacity="0.2" d="M146.586 116.799C145.661 117.883 143.868 118.11 142.547 117.469C142.115 117.257 141.72 116.978 141.375 116.644C141.887 117.784 142.764 118.722 143.868 119.311C145.351 120.028 147.423 119.662 148.205 118.214C147.539 117.91 146.976 117.418 146.586 116.799Z" fill="white"/>
</g>
<path opacity="0.2" d="M212.856 116.691C212.856 116.691 174.809 177.832 158.41 180.995C157.463 181.184 156.502 181.302 155.537 181.346C156.856 181.384 158.176 181.266 159.468 180.995C175.851 177.835 213.898 116.691 213.898 116.691L213.049 116.391C212.932 116.59 212.856 116.691 212.856 116.691Z" fill="white"/>
<path opacity="0.2" d="M62.7779 116.691C62.7779 116.691 100.825 177.832 117.223 180.995C118.171 181.184 119.132 181.302 120.097 181.346C118.777 181.384 117.458 181.266 116.165 180.995C99.7825 177.835 61.7356 116.691 61.7356 116.691L62.5847 116.391C62.7019 116.59 62.7779 116.691 62.7779 116.691Z" fill="white"/>
<path d="M137.817 160.177C141.148 160.177 144.446 160.831 147.523 162.103C150.601 163.374 153.397 165.238 155.752 167.587C158.108 169.936 159.976 172.725 161.251 175.795C162.525 178.864 163.181 182.154 163.181 185.476V196.018H112.452V185.476C112.452 182.154 113.108 178.864 114.383 175.795C115.658 172.725 117.526 169.936 119.881 167.587C122.237 165.238 125.033 163.374 128.11 162.103C131.188 160.831 134.486 160.177 137.817 160.177V160.177Z" fill="#FF9800"/>
<path opacity="0.2" d="M138.08 160.31C137.157 160.309 136.235 160.359 135.317 160.458C135.634 160.458 135.922 160.439 136.23 160.439C142.957 160.439 149.408 163.105 154.165 167.849C158.922 172.594 161.594 179.029 161.594 185.739V196.148H163.444V185.609C163.444 178.899 160.772 172.464 156.015 167.72C151.258 162.975 144.807 160.31 138.08 160.31Z" fill="white"/>
<path opacity="0.2" d="M137.554 160.31C138.477 160.309 139.399 160.359 140.317 160.458C140 160.458 139.711 160.439 139.404 160.439C132.677 160.439 126.225 163.105 121.469 167.849C116.712 172.594 114.039 179.029 114.039 185.739V196.148H112.189V185.609C112.189 178.899 114.862 172.464 119.618 167.72C124.375 162.975 130.827 160.31 137.554 160.31V160.31Z" fill="white"/>
<path d="M145.215 160.572C145.215 156.497 141.902 153.193 137.817 153.193C133.731 153.193 130.419 156.497 130.419 160.572V163.602C130.419 167.678 133.731 170.981 137.817 170.981C141.902 170.981 145.215 167.678 145.215 163.602V160.572Z" fill="#F8C198"/>
<defs>
<linearGradient id="paint0_linear" x1="231.754" y1="199.083" x2="231.754" y2="33.1806" gradientUnits="userSpaceOnUse">
<stop stop-color="#808080" stop-opacity="0.25"/>
<stop offset="0.54" stop-color="#808080" stop-opacity="0.12"/>
<stop offset="1" stop-color="#808080" stop-opacity="0.1"/>
</linearGradient>
<linearGradient id="paint1_linear" x1="11806.1" y1="104884" x2="11806.1" y2="17785.4" gradientUnits="userSpaceOnUse">
<stop stop-color="#808080" stop-opacity="0.25"/>
<stop offset="0.54" stop-color="#808080" stop-opacity="0.12"/>
<stop offset="1" stop-color="#808080" stop-opacity="0.1"/>
</linearGradient>
<linearGradient id="paint2_linear" x1="43.246" y1="60.041" x2="43.246" y2="50.2449" gradientUnits="userSpaceOnUse">
<stop stop-opacity="0.12"/>
<stop offset="0.55" stop-opacity="0.09"/>
<stop offset="1" stop-opacity="0.02"/>
</linearGradient>
<linearGradient id="paint3_linear" x1="39889.1" y1="2386.79" x2="39889.1" y2="2083.11" gradientUnits="userSpaceOnUse">
<stop stop-opacity="0.12"/>
<stop offset="0.55" stop-opacity="0.09"/>
<stop offset="1" stop-opacity="0.02"/>
</linearGradient>
<linearGradient id="paint4_linear" x1="39834.6" y1="2872.17" x2="39834.6" y2="2568.49" gradientUnits="userSpaceOnUse">
<stop stop-opacity="0.12"/>
<stop offset="0.55" stop-opacity="0.09"/>
<stop offset="1" stop-opacity="0.02"/>
</linearGradient>
<linearGradient id="paint5_linear" x1="39834.6" y1="3357.56" x2="39834.6" y2="3053.88" gradientUnits="userSpaceOnUse">
<stop stop-opacity="0.12"/>
<stop offset="0.55" stop-opacity="0.09"/>
<stop offset="1" stop-opacity="0.02"/>
</linearGradient>
<linearGradient id="paint6_linear" x1="39834.6" y1="3842.94" x2="39834.6" y2="3539.26" gradientUnits="userSpaceOnUse">
<stop stop-opacity="0.12"/>
<stop offset="0.55" stop-opacity="0.09"/>
<stop offset="1" stop-opacity="0.02"/>
</linearGradient>
<linearGradient id="paint7_linear" x1="39834.6" y1="4328.33" x2="39834.6" y2="4024.64" gradientUnits="userSpaceOnUse">
<stop stop-opacity="0.12"/>
<stop offset="0.55" stop-opacity="0.09"/>
<stop offset="1" stop-opacity="0.02"/>
</linearGradient>
<linearGradient id="paint8_linear" x1="39834.6" y1="4813.71" x2="39834.6" y2="4510.03" gradientUnits="userSpaceOnUse">
<stop stop-opacity="0.12"/>
<stop offset="0.55" stop-opacity="0.09"/>
<stop offset="1" stop-opacity="0.02"/>
</linearGradient>
<linearGradient id="paint9_linear" x1="39834.6" y1="5299.1" x2="39834.6" y2="4995.42" gradientUnits="userSpaceOnUse">
<stop stop-opacity="0.12"/>
<stop offset="0.55" stop-opacity="0.09"/>
<stop offset="1" stop-opacity="0.02"/>
</linearGradient>
<linearGradient id="paint10_linear" x1="39834.6" y1="5784.49" x2="39834.6" y2="5480.81" gradientUnits="userSpaceOnUse">
<stop stop-opacity="0.12"/>
<stop offset="0.55" stop-opacity="0.09"/>
<stop offset="1" stop-opacity="0.02"/>
</linearGradient>
<linearGradient id="paint11_linear" x1="39834.6" y1="50.2449" x2="39834.6" y2="50.2449" gradientUnits="userSpaceOnUse">
<stop stop-opacity="0.12"/>
<stop offset="0.55" stop-opacity="0.09"/>
<stop offset="1" stop-opacity="0.02"/>
</linearGradient>
<linearGradient id="paint12_linear" x1="2779.15" y1="2255.17" x2="12043.3" y2="2255.17" gradientUnits="userSpaceOnUse">
<stop stop-opacity="0.12"/>
<stop offset="0.55" stop-opacity="0.09"/>
<stop offset="1" stop-opacity="0.02"/>
</linearGradient>
<linearGradient id="paint13_linear" x1="2779.15" y1="2730.44" x2="12043.3" y2="2730.44" gradientUnits="userSpaceOnUse">
<stop stop-opacity="0.12"/>
<stop offset="0.55" stop-opacity="0.09"/>
<stop offset="1" stop-opacity="0.02"/>
</linearGradient>
<linearGradient id="paint14_linear" x1="2779.15" y1="3205.72" x2="12043.3" y2="3205.72" gradientUnits="userSpaceOnUse">
<stop stop-opacity="0.12"/>
<stop offset="0.55" stop-opacity="0.09"/>
<stop offset="1" stop-opacity="0.02"/>
</linearGradient>
<linearGradient id="paint15_linear" x1="2779.15" y1="3691.1" x2="12043.3" y2="3691.1" gradientUnits="userSpaceOnUse">
<stop stop-opacity="0.12"/>
<stop offset="0.55" stop-opacity="0.09"/>
<stop offset="1" stop-opacity="0.02"/>
</linearGradient>
<linearGradient id="paint16_linear" x1="2779.15" y1="4176.48" x2="12043.3" y2="4176.48" gradientUnits="userSpaceOnUse">
<stop stop-opacity="0.12"/>
<stop offset="0.55" stop-opacity="0.09"/>
<stop offset="1" stop-opacity="0.02"/>
</linearGradient>
<linearGradient id="paint17_linear" x1="2779.15" y1="4661.87" x2="12043.3" y2="4661.87" gradientUnits="userSpaceOnUse">
<stop stop-opacity="0.12"/>
<stop offset="0.55" stop-opacity="0.09"/>
<stop offset="1" stop-opacity="0.02"/>
</linearGradient>
<linearGradient id="paint18_linear" x1="25259.4" y1="8177.26" x2="140458" y2="8177.26" gradientUnits="userSpaceOnUse">
<stop stop-color="#808080" stop-opacity="0.25"/>
<stop offset="0.54" stop-color="#808080" stop-opacity="0.12"/>
<stop offset="1" stop-color="#808080" stop-opacity="0.1"/>
</linearGradient>
<linearGradient id="paint19_linear" x1="83008.2" y1="1112.66" x2="83008.2" y2="632.011" gradientUnits="userSpaceOnUse">
<stop stop-color="#808080" stop-opacity="0.25"/>
<stop offset="0.54" stop-color="#808080" stop-opacity="0.12"/>
<stop offset="1" stop-color="#808080" stop-opacity="0.1"/>
</linearGradient>
<linearGradient id="paint20_linear" x1="101046" y1="66655.5" x2="101046" y2="38440" gradientUnits="userSpaceOnUse">
<stop stop-color="#808080" stop-opacity="0.25"/>
<stop offset="0.54" stop-color="#808080" stop-opacity="0.12"/>
<stop offset="1" stop-color="#808080" stop-opacity="0.1"/>
</linearGradient>
</defs>
</svg>
